<?xml version="1.0" encoding="UTF-8" standalone="no"?>
<svg
   version="1.2"
   viewBox="0 0 1257.2008 1130.8503"
   width="1257.2008"
   height="1130.8503"
   id="svg1"
   xml:space="preserve"
   xmlns:xlink="http://www.w3.org/1999/xlink"
   xmlns="http://www.w3.org/2000/svg"
   xmlns:svg="http://www.w3.org/2000/svg"><defs
     id="defs1"><linearGradient
       id="linearGradient42"><stop
         style="stop-color:#000000;stop-opacity:1;"
         offset="0"
         id="stop38" /><stop
         style="stop-color:#04c0ff;stop-opacity:1;"
         offset="0.2412281"
         id="stop40" /><stop
         style="stop-color:#0275fe;stop-opacity:1;"
         offset="0.42872807"
         id="stop47" /><stop
         style="stop-color:#08e3fd;stop-opacity:1;"
         offset="0.7406798"
         id="stop48" /><stop
         style="stop-color:#0ad3ff;stop-opacity:1;"
         offset="1"
         id="stop42" /></linearGradient><linearGradient
       id="linearGradient33"><stop
         style="stop-color:#06abfd;stop-opacity:1;"
         offset="0"
         id="stop33" /><stop
         style="stop-color:#07f0fe;stop-opacity:1;"
         offset="0.53508776"
         id="stop44" /><stop
         style="stop-color:#03a0e9;stop-opacity:1;"
         offset="0.64912283"
         id="stop45" /><stop
         style="stop-color:#008ff8;stop-opacity:1;"
         offset="0.875"
         id="stop49" /><stop
         style="stop-color:#000000;stop-opacity:1;"
         offset="1"
         id="stop46" /></linearGradient><linearGradient
       xlink:href="#linearGradient42"
       id="linearGradient32"
       x1="35"
       y1="641.82501"
       x2="1249"
       y2="641.82501"
       gradientUnits="userSpaceOnUse"
       spreadMethod="pad"
       gradientTransform="translate(-13.39922,-76.400002)" /><linearGradient
       xlink:href="#linearGradient33"
       id="linearGradient34"
       x1="34.999222"
       y1="495"
       x2="1185.6105"
       y2="495"
       gradientUnits="userSpaceOnUse"
       gradientTransform="translate(-13.39922,-76.400002)" /><filter
       style="color-interpolation-filters:sRGB"
       id="filter85"
       x="-0.01877263"
       y="-0.02720403"
       width="1.0427599"
       height="1.0619647"><feFlood
         result="flood"
         in="SourceGraphic"
         flood-opacity="0.498039"
         flood-color="rgb(0,0,0)"
         id="feFlood84" /><feGaussianBlur
         result="blur"
         in="SourceGraphic"
         stdDeviation="9.000000"
         id="feGaussianBlur84" /><feOffset
         result="offset"
         in="blur"
         dx="6.000000"
         dy="6.000000"
         id="feOffset84" /><feComposite
         result="comp1"
         operator="in"
         in="flood"
         in2="offset"
         id="feComposite84" /><feComposite
         result="comp2"
         operator="over"
         in="SourceGraphic"
         in2="comp1"
         id="feComposite85" /></filter><filter
       style="color-interpolation-filters:sRGB"
       id="filter168"
       x="-0.051311384"
       y="-0.073751256"
       width="1.1026228"
       height="1.1475025"><feFlood
         result="flood"
         in="SourceGraphic"
         flood-opacity="0.498039"
         flood-color="rgb(0,0,0)"
         id="feFlood167" /><feGaussianBlur
         result="blur"
         in="SourceGraphic"
         stdDeviation="9.000000"
         id="feGaussianBlur167" /><feOffset
         result="offset"
         in="blur"
         dx="0.000000"
         dy="0.000000"
         id="feOffset167" /><feComposite
         result="comp1"
         operator="in"
         in="flood"
         in2="offset"
         id="feComposite167" /><feComposite
         result="comp2"
         operator="over"
         in="SourceGraphic"
         in2="comp1"
         id="feComposite168" /></filter><filter
       style="color-interpolation-filters:sRGB"
       id="filter170"
       x="-0.027954109"
       y="-0.027740309"
       width="1.0559082"
       height="1.0554806"><feFlood
         result="flood"
         in="SourceGraphic"
         flood-opacity="0.498039"
         flood-color="rgb(0,0,0)"
         id="feFlood168" /><feGaussianBlur
         result="blur"
         in="SourceGraphic"
         stdDeviation="9.000000"
         id="feGaussianBlur168" /><feOffset
         result="offset"
         in="blur"
         dx="0.000000"
         dy="0.000000"
         id="feOffset168" /><feComposite
         result="comp1"
         operator="in"
         in="flood"
         in2="offset"
         id="feComposite169" /><feComposite
         result="comp2"
         operator="over"
         in="SourceGraphic"
         in2="comp1"
         id="feComposite170" /></filter><linearGradient
       xlink:href="#linearGradient42"
       id="linearGradient170"
       gradientUnits="userSpaceOnUse"
       x1="35"
       y1="641.82501"
       x2="1249"
       y2="641.82501"
       spreadMethod="pad"
       gradientTransform="translate(-13.39922,-76.400002)" /></defs><title
     id="title1">IMG_2218 (2)</title><style
     id="style1">
		.s0 { fill: #000000 } 
	</style><path
     style="opacity:1;fill:url(#linearGradient170);fill-opacity:1;filter:url(#filter168)"
     d="m 331.10078,330.6 c -2.7,0 -7.9,0.89961 -11.5,2.09961 -3.6,1.2 -7.8,2.80117 -9.5,3.70117 -1.6,0.8 -5.40039,3.39961 -8.40039,5.59961 -2.9,2.3 -7.69961,6.99961 -10.59961,10.59961 -2.9,3.6 -7.80078,10.3 -10.80078,15 -3,4.7 -8.59844,14.60001 -12.39844,22 -3.79999,7.39999 -11.50157,24.10001 -17.10156,37 -5.7,12.89999 -12.2,27.3 -14.5,32 -2.3,4.7 -6.39922,11.9 -9.19922,16 -2.7,4.1 -8.39961,11.6 -12.59961,16.5 -4.2,5 -11,11.69961 -15,15.09961 -4.1,3.3 -11.7004,9.00117 -16.90039,12.70117 -5.19999,3.6 -14.70001,9.2 -21,12.5 -6.29999,3.3 -15.5,7.49922 -20.5,9.19922 -4.9,1.7 -13.50001,4.09922 -19,5.19922 -8.69999,1.7 -14.70003,2.10078 -45,2.30078 0,0 23.78702,0.42129 58.86133,8.96094 35.07427,8.53964 45.56111,13.41059 51.77344,16.09375 6.21233,2.68314 4.96446,2.34609 10.06445,5.24609 -5.1,-2.9 -9.19922,-5.50078 -9.19922,-5.80078 0,-0.3 2.59922,-1.80078 5.69922,-3.30078 3.2,-1.6 9.40078,-5 13.80078,-7.5 4.4,-2.6 12.30001,-7.89883 17.5,-11.79883 5.19999,-3.9 11.79961,-9.6 14.59961,-12.5 2.8,-3 7.29961,-8.10039 10.09961,-11.40039 2.7,-3.3 7.7,-10 11,-15 3.3,-5 9.00156,-14.60001 12.60156,-21.5 3.6,-6.89999 9.29961,-18.90079 12.59961,-26.80078 3.4,-7.79999 6.09961,-14.39922 6.09961,-14.69922 0,-0.3 2.09961,-5.30079 4.59961,-11.30078 2.5,-5.9 6.10039,-14.09922 7.90039,-18.19922 1.9,-4.1 5.40039,-11.20079 7.90039,-15.80078 2.5,-4.5 5.80039,-8.99961 7.40039,-10.09961 1.5,-1 4.09922,-2.30039 5.69922,-2.90039 1.7,-0.6 3.30078,-1.09961 3.80078,-1.09961 0.4,-0.1 2.8,0.80039 5.5,1.90039 2.6,1.1 6.09883,3.59922 7.79883,5.69922 1.7,2.1 5.40078,8.4 8.30078,14 2.8,5.69999 7.59922,17.20001 10.69922,25.5 3,8.39999 9.30039,26.50079 13.90039,40.30078 4.6,13.69999 10.49961,30.40001 13.09961,37 2.6,6.59999 7.50039,18.10001 10.90039,25.5 3.4,7.39999 8.8,18.00001 12,23.5 3.2,5.49999 9.27895,12.99922 11.67895,16.69922 2.4,3.79999 39.296,43.68971 40.1344,44.67715 L 498.06,586.19701 c -1.42225,-1.92598 -33.24695,-39.02277 -33.94695,-40.02277 -0.7,-0.9 -4.91266,-8.67424 -7.91266,-13.07424 -2.9,-4.4 -7.80039,-12.70001 -10.90039,-18.5 -3.1,-5.79999 -8.09922,-16.10001 -11.19922,-23 -3.1,-6.89999 -7.4,-17.00001 -9.5,-22.5 -2,-5.49999 -5,-13.6 -6.5,-18 -1.5,-4.4 -4,-11.4 -5.5,-15.5 -1.5,-4.1 -4.4,-11.80001 -6.5,-17 -2,-5.19999 -5.6,-14.00001 -8,-19.5 -2.4,-5.49999 -6.60078,-14.1 -9.30078,-19 -2.7,-4.9 -6.49844,-11.5 -8.39844,-14.5 -1.9,-3 -5.90117,-8.4 -8.70117,-12 -2.9,-3.6 -7.10039,-8.00078 -9.40039,-9.80078 -2.3,-1.9 -6.19922,-4.6 -8.69922,-6 -2.5,-1.5 -7.4,-3.69844 -11,-4.89844 -3.6,-1.3 -8.7,-2.30078 -11.5,-2.30078 z"
     id="Path 0"
     transform="matrix(1.0256818,0,0,1.0256818,-16.143576,-14.521122)" /><path
     id="path37"
     style="display:inline;opacity:1;fill:url(#linearGradient34);fill-opacity:1;filter:url(#filter85)"
     d="m 775.7795,603.18307 c 2.66056,2.90947 16.39908,17.89923 19.5373,20.63373 0.83469,0.59967 1.86192,1.51205 2.88281,2.58398 2,2 6.69961,8.39925 10.59961,14.19922 3.79998,5.79997 9.60078,15.90003 12.80078,22.5 3.2,6.59997 9.8008,22.10003 14.80078,34.5 4.9,12.39997 11.79922,29.00003 15.19922,37 3.4,7.99997 8.89922,19.90003 12.19922,26.5 3.3,6.6 8.80078,16.3 12.30078,21.5 3.4,5.2 9.4008,12.6 13.30078,16.5 3.8,3.9 9.59883,8.3992 12.79883,10.1992 3.3,1.7 8.40039,3.8012 11.40039,4.7012 3,0.9 8.2,1.5996 11.5,1.5996 3.3,0 8.5,-0.6996 11.5,-1.5996 3,-0.9 7.3,-2.6004 9.5,-3.9004 2.2,-1.2 6.29922,-4.1996 9.19922,-6.5996 2.9,-2.4 7.60039,-7.3004 10.40039,-10.9004 2.8,-3.6 7.10039,-9.4 9.40039,-13 2.3,-3.6 6.6,-10.8 9.5,-16 2.89998,-5.2 13.19998,-25.50006 23,-45 9.7,-19.49994 18.9,-37.7 20.5,-40.5 1.6,-2.7 4.9004,-7.9 7.4004,-11.5 2.4,-3.6 7.3996,-10.1 11.0996,-14.5 3.6,-4.4 9.2004,-10.2 12.4004,-13 3.2,-2.7 9.2004,-7.59922 13.4004,-10.69922 4.2,-3.2 12.3992,-8.20117 18.1992,-11.20117 5.8,-3 14.9008,-6.8 20.3008,-8.5 5.3,-1.7 17.7,-4.69961 27.5,-6.59961 9.7,-1.9 20.1992,-3.9 23.1992,-4.5 3,-0.5 7.2008,-1 9.3008,-1 0.2383,0 0.9938,-0.10579 1.3105,-0.11914 -8.1787,-0.49696 -24.3976,-1.87147 -50.9726,-8.3418 C 1086.1643,579.59941 1068.6,572.6 1068.6,572.6 c 0,0.3 -4.0992,2.90078 -9.1992,5.80078 -5.1,2.9 -13.3008,8.3 -18.3008,12 -4.9,3.7 -13.0004,10.49922 -17.9004,15.19922 -4.9,4.7 -11.6996,11.9 -15.0996,16 -3.4,4.1 -9.19922,12.00003 -12.69922,17.5 -3.6,5.49997 -9.1008,15.20003 -12.30078,21.5 -3.2,6.29997 -8.89922,19.40003 -12.69922,29 -3.89998,9.59997 -9.2,22.70003 -12,29 -2.7,6.29997 -7.10156,15.3 -9.60156,20 -2.5,4.7 -6.29883,10.3 -8.29883,12.5 -2,2.2 -6.00042,5.0992 -14.40039,8.6992 l -6.5,-2.8984 c -4.5,-2 -7.59961,-4.30041 -10.09961,-7.40041 -2,-2.4 -5.00117,-6.90039 -6.70117,-9.90039 -1.7,-3 -5.1,-10.50003 -7.5,-16.5 -2.4,-5.99997 -6.09961,-15.70003 -8.09961,-21.5 -2.1,-5.79997 -6.29883,-17.00003 -9.29883,-25 -3,-7.99997 -7.5,-19.00003 -10,-24.5 -2.5,-5.49997 -7.00156,-14.70003 -10.10156,-20.5 -3,-5.79997 -7.8,-14.1 -10.5,-18.5 -2.7,-4.4 -7.49883,-11.7008 -10.79883,-16.30078 l -26.91992,-29.49805 -21.08008,-27.00195 c -1.5,-2.3 -4.30117,-7.29922 -6.20117,-11.19922 -1.9,-3.9 -5,-11 -7,-16 -1.9,-5 -5.1,-14.20003 -7,-20.5 -2,-6.29997 -6.19922,-21.90003 -9.19922,-34.5 -3.1,-12.59997 -7.69961,-32.70003 -10.09961,-44.5 -2.5,-11.79997 -5.4,-26.00003 -6.5,-31.5 -1.1,-5.49997 -3.90039,-20.80003 -6.40039,-34 -2.4,-13.19997 -5.1,-28.90003 -6,-35 -0.9,-6.09997 -4.1,-23.10003 -7,-38 -3,-14.89997 -6.5,-33.30003 -8,-41 -1.4,-7.69997 -4.19961,-21.20003 -6.09961,-30 -1.9,-8.79997 -4.8,-21.20003 -6.5,-27.5 -1.6,-6.29997 -3.9,-14.7 -5,-18.5 -1.1,-3.8 -6.59962,-20.90006 -12.09961,-38 -5.59997,-17.09994 -12.90039,-38.000033 -16.40039,-46.500003 -3.4,-8.49997 -8.10039,-19.1 -10.40039,-23.5 -2.4,-4.4 -5.90039,-10.2 -7.90039,-13 -2.1,-2.8 -5.69922,-6.69922 -8.19922,-8.69922 -2.4,-2 -6.09961,-4.40117 -8.09961,-5.20117 -2.1,-0.9 -4.8,-1.59961 -6,-1.59961 -1.3,0.1 -3.90078,0.79961 -5.80078,1.59961 -1.9,0.8 -5.50039,3.20117 -7.90039,5.20117 -2.5,2 -6.09922,5.99922 -8.19922,8.69922 -2,2.7 -5.50039,8.6 -7.90039,13 -2.3,4.4 -7.00039,15.00003 -10.40039,23.5 -3.5,8.49997 -10.80042,29.400063 -16.40039,46.500003 -5.49999,17.09994 -10.99961,34.2 -12.09961,38 -1.1,3.8 -3.4,12.20003 -5,18.5 -1.7,6.29997 -4.6,18.70003 -6.5,27.5 -1.9,8.79997 -4.69961,22.30003 -6.09961,30 -1.5,7.69997 -5,26.10003 -8,41 -2.9,14.89997 -6.1,31.90003 -7,38 -0.9,6.09997 -3.6,21.80003 -6,35 -2.5,13.19997 -5.30039,28.50003 -6.40039,34 -1.1,5.49997 -4,19.70003 -6.5,31.5 -2.4,11.79997 -6.99961,31.90003 -10.09961,44.5 -3,12.59997 -7.19922,28.20003 -9.19922,34.5 -1.9,6.29997 -5.1,15.5 -7,20.5 -2,5 -5.1,12.1 -7,16 -1.9,3.9 -4.70117,8.89922 -6.20117,11.19922 l -21.08008,27.00195 -26.91992,29.49805 c -3.3,4.59998 -8.09883,11.90078 -10.79883,16.30078 -2.7,4.4 -7.5,12.70003 -10.5,18.5 -3.1,5.79997 -7.60156,15.00003 -10.10156,20.5 -2.5,5.49997 -7,16.50003 -10,24.5 -3,7.99997 -7.19883,19.20003 -9.29883,25 -2,5.79997 -5.69961,15.50003 -8.09961,21.5 -2.4,5.99997 -5.8,13.5 -7.5,16.5 -1.7,3 -4.70117,7.50039 -6.70117,9.90039 -2.5,3.1 -5.59964,5.39881 -16.59961,10.29881 l -5.40039,-2.2988 c -3,-1.3 -7,-4.2004 -9,-6.4004 -2,-2.2 -5.79883,-7.8 -8.29883,-12.5 -2.5,-4.7 -6.90156,-13.70003 -9.60156,-20 -2.8,-6.29997 -8.10002,-19.40003 -12,-29 -3.8,-9.59997 -9.49922,-22.70003 -12.69922,-29 -3.2,-6.29997 -8.70078,-16.00003 -12.30078,-21.5 -3.5,-5.49997 -9.29922,-13.4 -12.69922,-17.5 -3.4,-4.1 -10.19961,-11.3 -15.09961,-16 C 229.10041,600.9 221,594.10078 216.1,590.40078 c -4.99999,-3.7 -13.20081,-9.1 -18.30078,-12 -5.09999,-2.9 -3.85058,-2.56239 -10.06292,-5.24554 -6.21233,-2.68316 -16.70066,-7.55465 -51.77497,-16.0943 C 100.88699,548.52128 77.099999,548.1 77.099999,548.1 c -21.699934,0.2 -36.300006,0.8 -38.5,1.5 -1.899994,0.6 -5.399225,2.2 -7.699219,3.5 -2.999991,1.8 -5.000787,4 -6.800781,7.5 -1.399997,2.8 -2.5,6.6 -2.5,8.5 0,1.9 0.699612,5.20078 1.599609,7.30078 0.799999,2 2.901178,5.2 4.701172,7 1.799994,1.8 5.499228,4.09961 8.199219,5.09961 2.799991,1 8.000793,2.3 11.800781,3 3.69999,0.6 9.700012,1.49961 13.5,2.09961 3.69999,0.5 10.000012,1.4 13.999999,2 3.89999,0.5 8.90001,1 10.999998,1 2,0 6.19922,0.5 9.19922,1 3,0.6 13.500813,2.6 23.300783,4.5 9.69997,1.9 22.10003,4.89961 27.5,6.59961 5.29999,1.7 14.39925,5.5 20.19922,8.5 5.79997,3 13.99922,8.00117 18.19922,11.20117 4.19998,3.1 10.20039,7.99922 13.40039,10.69922 3.2,2.8 8.80039,8.6 12.40039,13 3.7,4.4 8.69961,10.9 11.09961,14.5 2.5,3.6 5.80039,8.8 7.40039,11.5 1.6,2.8 10.80003,21.00006 20.5,40.5 9.79997,19.49994 20.1,39.8 23,45 2.9,5.2 7.2,12.4 9.5,16 2.3,3.6 6.60039,9.4 9.40039,13 2.8,3.6 7.50039,8.5004 10.40039,10.9004 2.9,2.4 6.99922,5.3996 9.19922,6.5996 2.2,1.3 6.5,3.0004 9.5,3.9004 3,0.9 8.2,1.5996 11.5,1.5996 3.3,0 8.5,-0.6996 11.5,-1.5996 3,-0.9 8.10039,-3.0012 11.40039,-4.7012 3.2,-1.8 8.99883,-6.2992 12.79883,-10.1992 3.89998,-3.9 9.90078,-11.3 13.30078,-16.5 3.5,-5.2 9.00078,-14.9 12.30078,-21.5 3.3,-6.59997 8.79922,-18.50003 12.19922,-26.5 3.4,-7.99997 10.29922,-24.60003 15.19922,-37 C 425.7992,685.20003 432.4,669.69997 435.6,663.1 c 3.2,-6.59997 9.0008,-16.70003 12.80078,-22.5 3.9,-5.79997 8.59961,-12.19922 10.59961,-14.19922 L 484.225,600.73477 c 11.81759,-13.10118 22.26016,-31.00581 27.17578,-40.13477 2.7,-5.19997 7,-14.20003 9.5,-20 2.4,-5.79997 6.3,-15.70003 8.5,-22 2.2,-6.29997 5.59961,-17.40003 7.59961,-24.5 1.9,-7.09997 4.69961,-18.00003 6.09961,-24 1.4,-5.99997 3.5,-14.8 4.5,-19.5 1.1,-4.7 3.30039,-14.40003 4.90039,-21.5 1.7,-7.09997 4.39961,-19.30003 6.09961,-27 1.7,-7.69997 4.80039,-22.80003 6.90039,-33.5 2.1,-10.69997 4.30039,-22.4 4.90039,-26 0.7,-3.6 1.79922,-11.00003 2.69922,-16.5 0.8,-5.49997 2.60039,-17.00003 3.90039,-25.5 1.4,-8.49997 3.19961,-19.6 4.09961,-24.5 0.9,-4.9 3.59961,-18.90003 6.09961,-31 2.5,-12.09997 7.60039,-34.40006 11.40039,-49.5 3.8,-15.09994 9,-33.60003 11.5,-41 2.6,-7.39997 6.19961,-16.29922 8.09961,-19.69922 1.9,-3.6 4.60117,-6.90078 6.20117,-7.80078 1.5,-0.8 3.3,-1.4 4,-1.5 0.6,0 2.59922,0.7 4.19922,1.5 1.9,1 4.20039,3.8008 6.40039,7.80078 1.9,3.4 5.49961,12.29925 8.09961,19.69922 2.5,7.39997 7.7,25.90006 11.5,41 3.8,15.09994 8.90039,37.40003 11.40039,49.5 2.5,12.09997 5.19961,26.1 6.09961,31 0.9,4.9 2.69961,16.00003 4.09961,24.5 1.3,8.49997 3.10039,20.00003 3.90039,25.5 0.9,5.49997 1.99922,12.9 2.69922,16.5 0.6,3.6 2.80039,15.30003 4.90039,26 2.1,10.69997 5.20039,25.80003 6.90039,33.5 1.7,7.69997 4.39961,19.90003 6.09961,27 1.6,7.09997 3.80039,16.8 4.90039,21.5 1,4.7 3.1,13.50003 4.5,19.5 1.4,5.99997 4.19961,16.90003 6.09961,24 2,7.09997 5.39961,18.20003 7.59961,24.5 2.2,6.29997 6.1,16.20003 8.5,22 2.5,5.79997 6.8,14.80003 9.5,20 2.8,5.19997 7.10039,12.5008 9.40039,16.30078"
     transform="matrix(1.0256818,0,0,1.0256818,-16.143576,-14.521122)" /><path
     style="opacity:1;fill:url(#linearGradient32);fill-opacity:1;filter:url(#filter170)"
     d="m 834.80375,577.02247 c 2.4,-3.7 7.09703,-9.42248 10.29703,-14.92247 3.2,-5.49999 8.6,-16.10001 12,-23.5 3.4,-7.39999 8.30039,-18.90001 10.90039,-25.5 2.6,-6.59999 8.49961,-23.30001 13.09961,-37 4.6,-13.79999 10.90039,-31.90079 13.90039,-40.30078 3.1,-8.29999 7.89922,-19.80001 10.69922,-25.5 2.9,-5.6 6.40078,-11.69961 7.80078,-13.59961 1.4,-1.8 4.89961,-4.39922 7.59961,-5.69922 3.2,-1.5 5.9,-2.20039 7.5,-1.90039 1.4,0.4 4.1,1.40039 6,2.40039 1.9,1 4.69922,3.49922 6.19922,5.69922 1.4,2.1 4.60156,8.00039 7.10156,12.90039 2.5,4.9 7.29961,15.39923 10.59961,23.19922 3.4,7.89999 6.09961,14.50078 6.09961,14.80078 0,0.3 2.69961,6.89923 6.09961,14.69922 3.3,7.89999 8.99961,19.90079 12.59961,26.80078 3.59998,6.89999 9.30158,16.5 12.60158,21.5 3.3,5 8.30002,11.7 11.00002,15 2.8,3.3 7.2996,8.40039 10.0996,11.40039 2.8,2.9 9.3996,8.6 14.5996,12.5 5.2,3.9 13.1,9.19883 17.5,11.79883 4.4,2.5 10.6008,5.9 13.8008,7.5 3.1,1.5 5.6992,3.00078 5.6992,3.30078 0,0 17.5643,6.99942 52.6387,15.53906 26.5749,6.47033 42.7939,7.84484 50.9726,8.3418 2.3414,-0.0987 6.166,-0.44043 9.6895,-0.88086 3.9,-0.6 10.2,-1.5 14,-2 3.7,-0.6 9.7,-1.49961 13.5,-2.09961 3.7,-0.7 8.9992,-2 11.6992,-3 2.8,-1 6.3992,-3.29961 8.1992,-5.09961 1.8,-1.8 3.9012,-5 4.7012,-7 0.9,-2.1 1.5996,-5.40078 1.5996,-7.30078 0,-1.9 -1.1,-5.7 -2.5,-8.5 -1.8,-3.5 -3.7992,-5.7 -6.6992,-7.5 -2.4,-1.3 -5.9008,-2.9 -7.8008,-3.5 -2.2,-0.7 -16.8,-1.3 -38.5,-1.5 -30.3,-0.2 -36.3,-0.60078 -45,-2.30078 -5.5,-1.1 -14,-3.49922 -19,-5.19922 -4.9,-1.7 -14.2,-5.89922 -20.5,-9.19922 -6.3,-3.3 -15.8,-8.9 -21,-12.5 -5.2,-3.7 -12.8004,-9.40117 -16.9004,-12.70117 -4,-3.4 -10.8,-10.09961 -15,-15.09961 -4.2,-4.9 -9.8996,-12.4 -12.5996,-16.5 -2.8,-4.1 -6.8992,-11.3 -9.1992,-16 -2.3,-4.7 -8.8,-19.10001 -14.5,-32 -5.6,-12.89999 -13.30162,-29.60001 -17.10162,-37 -3.79998,-7.39999 -9.39842,-17.3 -12.39842,-22 -3,-4.7 -7.90078,-11.4 -10.80078,-15 -2.9,-3.6 -7.69961,-8.29961 -10.59961,-10.59961 -3,-2.2 -6.70039,-4.79961 -8.40039,-5.59961 -1.6,-0.9 -5.9,-2.50117 -9.5,-3.70117 -3.6,-1.2 -8.7,-2.09961 -11.5,-2.09961 -2.7,0 -7.9,1.00078 -11.5,2.30078 -3.6,1.2 -8.5,3.39844 -11,4.89844 -2.5,1.4 -6.39922,4.1 -8.69922,6 -2.3,1.8 -6.50039,6.20078 -9.40039,9.80078 -2.8,3.6 -6.80117,9 -8.70117,12 -1.9,3 -5.69844,9.6 -8.39844,14.5 -2.7,4.9 -6.90078,13.50001 -9.30078,19 -2.4,5.49999 -6,14.30001 -8,19.5 -2.1,5.19999 -5,12.9 -6.5,17 -1.5,4.1 -4,11.1 -5.5,15.5 -1.5,4.4 -4.5,12.50001 -6.5,18 -2.1,5.49999 -6.4,15.60001 -9.5,22.5 -3.1,6.89999 -8.09922,17.20001 -11.19922,23 -3.1,5.79999 -8.00039,14.1 -10.90039,18.5 -3,4.4 -5.89961,8.79922 -6.59961,9.69922 -14.19318,17.17371 -11.61695,13.92654 -17.25929,21.02402 -8.44869,10.62757 -21.54229,27.27678 -24.84229,32.27678 -3.2,5 -7.79922,12.8 -10.19922,17.5 -2.3,4.7 -5.9,12.5 -8,17.5 -2.1,4.99999 -6.4,16.90001 -9.5,26.5 -3.2,9.59999 -7.60039,24.70001 -9.90039,33.5 -2.2,8.79999 -5.8,23.40001 -8,32.5 -2.2,9.09999 -6.89961,31.10002 -10.59961,49 -3.6,17.89998 -7.5,36.80001 -8.5,42 -1.1,5.19999 -2.9,13.3 -4,18 -1.1,4.7 -2.40039,10.5 -2.90039,13 -0.6,2.5 -2.79961,12.80001 -5.09961,23 -2.3,10.19999 -5.2,23.90001 -6.5,30.5 -1.3,6.59999 -5.1,26.20003 -8.5,43.49993 -3.3,17.3 -7.59961,39.2 -9.59961,48.5 -1.9,9.29995 -4.2,20.39995 -5,24.49995 -0.9,4.1 -2.49961,10.7 -3.59961,14.5 -1.1,3.8 -2.90039,8.7008 -3.90039,10.8008 -1,2 -3.20039,4.3992 -4.90039,5.1992 -1.6,0.8 -3.9,1.5 -5,1.5 -1.1,0 -3.3,-0.7 -5,-1.5 -1.6,-0.8 -3.90039,-3.1992 -4.90039,-5.1992 -1,-2.1 -2.80039,-7.0008 -3.90039,-10.8008 -1.1,-3.8 -2.69961,-10.4 -3.59961,-14.5 -0.8,-4.1 -3.1,-15.2 -5,-24.49995 -2,-9.3 -6.29961,-31.2 -9.59961,-48.5 -3.4,-17.2999 -7.2,-36.89994 -8.5,-43.49993 -1.3,-6.59999 -4.2,-20.30001 -6.5,-30.5 -2.3,-10.19999 -4.49961,-20.5 -5.09961,-23 -0.5,-2.5 -1.80039,-8.3 -2.90039,-13 -1.1,-4.7 -2.9,-12.80001 -4,-18 -1,-5.19999 -4.9,-24.10002 -8.5,-42 -3.7,-17.89998 -8.39961,-39.90001 -10.59961,-49 -2.2,-9.09999 -5.8,-23.70001 -8,-32.5 -2.3,-8.79999 -6.70039,-23.90001 -9.90039,-33.5 -3.1,-9.59999 -7.4,-21.5 -9.5,-26.5 -2.1,-5 -5.7,-12.8 -8,-17.5 -2.4,-4.7 -6.99922,-12.5 -10.19922,-17.5 -3.3,-5 -7.39659,-10.83736 -8.04336,-11.61397 0,0 -9.39327,12.95212 -14.97999,18.6366 -6.16258,6.27042 -18.97239,19.24322 -18.97239,19.24322 0.5302,0.49194 4.59537,6.33492 8.09537,12.53491 3.5,6.1 8.90039,17.49923 11.90039,25.19922 3.1,7.69999 7.59961,21.00001 10.09961,29.5 2.5,8.49999 5.40039,19.1 6.40039,23.5 1.1,4.4 3.1,13.20001 4.5,19.5 1.4,6.29999 3.49961,15.80001 4.59961,21 1.1,5.19999 3.6,17.60001 5.5,27.5 1.8,9.89999 3.7,19.8 4,22 0.4,2.2 3.59961,19.30002 7.09961,38 3.6,18.69998 7.69961,40.30001 9.09961,48 1.5,7.69999 5.99961,30.90005 10.09961,51.49995 3.99999,20.6 8.00078,40.2 8.80078,43.5 0.8,3.3 2.10039,9.2 2.90039,13 0.9,3.79995 3.39961,14.69995 5.59961,23.99995 2.2,9.3 5.39961,21.5 7.09961,27 1.7,5.5 5.9,16.0008 9.5,23.3008 5.69999,11.7 7.30118,14.1 14.20117,21 5.4,5.6 9.69922,8.8984 14.69922,11.3984 3.9,1.9 10.2,4.0012 14,4.7012 5.59999,1 8.50001,1 14.5,0 4.5,-0.7 10.3,-2.6012 14.5,-4.7012 4.99999,-2.5 9.30079,-5.7984 14.80078,-11.3984 6.79999,-6.9 8.39962,-9.3 14.09961,-21 3.6,-7.3 7.8,-17.8008 9.5,-23.3008 1.7,-5.5 4.89961,-17.7 7.09961,-27 2.2,-9.3 4.69961,-20.2 5.59961,-23.99995 0.8,-3.8 2.10039,-9.7 2.90039,-13 0.8,-3.3 4.80079,-22.9 8.80078,-43.5 4.1,-20.5999 8.59961,-43.79996 10.09961,-51.49995 1.4,-7.69999 5.49961,-29.30002 9.09961,-48 3.5,-18.69998 6.69961,-35.8 7.09961,-38 0.3,-2.2 2.2,-12.10001 4,-22 1.9,-9.89999 4.4,-22.30001 5.5,-27.5 1.1,-5.19999 3.19961,-14.70001 4.59961,-21 1.4,-6.29999 3.4,-15.1 4.5,-19.5 1,-4.4 3.90039,-15.00001 6.40039,-23.5 2.5,-8.49999 6.99961,-21.80001 10.09961,-29.5 3,-7.69999 8.40039,-19.09922 11.90039,-25.19922 7.40039,-11.80078 13.84223,-16.7939 24.33588,-30.61264"
     id="path44"
     transform="matrix(1.0256818,0,0,1.0256818,-16.143576,-14.521122)" /></svg>
